<?xml version="1.0" encoding="UTF-8"?>
<!DOCTYPE svg PUBLIC "-//W3C//DTD SVG 1.1//EN" "http://www.w3.org/Graphics/SVG/1.1/DTD/svg11.dtd">
<svg xmlns="http://www.w3.org/2000/svg" version="1.1" width="1207px" height="317px" style="shape-rendering:geometricPrecision; text-rendering:geometricPrecision; image-rendering:optimizeQuality; fill-rule:evenodd; clip-rule:evenodd" xmlns:xlink="http://www.w3.org/1999/xlink">
<g><path style="opacity:0.944" fill="#fe9932" d="M 819.5,295.5 C 818.167,295.833 818.167,296.167 819.5,296.5C 818.833,297.167 818.167,297.833 817.5,298.5C 815.533,300.304 813.699,302.304 812,304.5C 811.667,304.167 811.333,303.833 811,303.5C 809.896,304.394 808.73,305.394 807.5,306.5C 805.417,307.029 803.583,308.029 802,309.5C 547.199,308.472 292.033,308.472 36.5,309.5C 26.5546,306.061 19.2213,299.561 14.5,290C 15.2583,288.636 14.7583,287.469 13,286.5C 12.3333,201.5 12.3333,116.5 13,31.5C 16.8552,17.6458 25.8552,9.31251 40,6.5C 292.627,6.16881 545.46,6.50214 798.5,7.5C 801.653,8.98947 804.486,10.3228 807,11.5C 807.333,11.1667 807.667,10.8333 808,10.5C 810.882,13.3108 814.382,16.1442 818.5,19C 818.167,19.3333 817.833,19.6667 817.5,20C 818.619,22.1759 820.452,24.3426 823,26.5C 823.269,29.3516 824.103,32.0182 825.5,34.5C 824.687,117.503 824.687,200.503 825.5,283.5C 824.532,286.273 823.199,288.773 821.5,291C 821.833,291.333 822.167,291.667 822.5,292C 821.635,293.359 820.635,294.526 819.5,295.5 Z M 65.5,55.5 C 63.8333,56.5 62.5,57.8333 61.5,59.5C 58.8447,60.4665 58.178,62.1332 59.5,64.5C 58.7579,65.2868 57.9246,65.9535 57,66.5C 58.1013,57.7258 63.1013,52.3925 72,50.5C 72.3333,51.1667 72.6667,51.8333 73,52.5C 79.9298,51.1858 87.0965,50.5191 94.5,50.5C 101.904,50.5191 109.07,51.1858 116,52.5C 122.93,51.1858 130.096,50.5191 137.5,50.5C 144.904,50.5191 152.07,51.1858 159,52.5C 174.28,51.1746 189.78,50.5079 205.5,50.5C 220.833,50.6667 236.167,50.8333 251.5,51C 253.608,51.3599 255.608,52.0266 257.5,53C 194.972,53.8277 132.472,53.6611 70,52.5C 68.0188,52.8985 66.5188,53.8985 65.5,55.5 Z M 350.5,51.5 C 361.598,50.1814 372.598,50.1814 383.5,51.5C 421.654,50.5684 459.821,50.235 498,50.5C 503.044,50.2452 507.877,51.0785 512.5,53C 449.972,53.8277 387.472,53.6611 325,52.5C 323.019,52.8985 321.519,53.8985 320.5,55.5C 319.833,55.5 319.5,55.8333 319.5,56.5C 317.81,56.8564 316.81,57.8564 316.5,59.5C 315.609,60.1098 314.609,60.4431 313.5,60.5C 318.037,52.224 324.704,49.5573 333.5,52.5C 336.3,51.2681 339.3,50.6015 342.5,50.5C 345.355,50.5025 348.022,50.8359 350.5,51.5 Z M 577.5,54.5 C 575.973,54.427 574.973,55.0937 574.5,56.5C 572.488,57.9222 570.488,59.2555 568.5,60.5C 571.008,54.9268 575.342,51.7601 581.5,51C 589.167,50.8333 596.833,50.6667 604.5,50.5C 612.568,50.5172 620.401,51.1839 628,52.5C 634.93,51.1858 642.096,50.5191 649.5,50.5C 656.904,50.5191 664.07,51.1858 671,52.5C 685.946,51.1748 701.113,50.5081 716.5,50.5C 731.5,50.6667 746.5,50.8333 761.5,51C 763.384,51.2163 765.051,51.883 766.5,53C 704.305,53.8277 642.138,53.661 580,52.5C 578.699,52.6387 577.866,53.3054 577.5,54.5 Z M 257.5,56.5 C 260.353,59.3936 263.353,61.5603 266.5,63C 265.786,64.3431 266.12,65.6764 267.5,67C 267.658,126.96 267.492,187.127 267,247.5C 265.362,253.809 261.529,258.309 255.5,261C 245.12,261.19 234.787,261.69 224.5,262.5C 183.24,261.265 141.906,261.265 100.5,262.5C 89.1376,261.948 77.8043,261.115 66.5,260C 67.172,258.421 66.5053,257.254 64.5,256.5C 63.5442,255.341 62.5442,254.174 61.5,253C 62.9227,251.588 62.756,250.421 61,249.5C 60.5158,216.794 60.3491,184.294 60.5,152C 62.6213,149.802 64.288,147.302 65.5,144.5C 67.3761,143.125 69.3761,141.958 71.5,141C 122.071,140.831 172.571,140.331 223,139.5C 224.016,140.634 224.683,140.301 225,138.5C 226.313,139.287 227.48,138.954 228.5,137.5C 229.954,136.48 230.287,135.313 229.5,134C 230.81,128.243 231.476,122.243 231.5,116C 231.333,110.167 231.167,104.333 231,98.5C 230.29,97.0267 229.124,96.3601 227.5,96.5C 227.539,94.6412 226.706,93.3079 225,92.5C 174.274,92.5037 123.607,92.5037 73,92.5C 70.1076,91.6064 67.7743,89.9397 66,87.5C 65.6667,87.8333 65.3333,88.1667 65,88.5C 64.5762,85.9746 63.4095,83.9746 61.5,82.5C 62.8333,82.1667 62.8333,81.8333 61.5,81.5C 60.1667,76.8333 60.1667,72.1667 61.5,67.5C 62.8333,67.1667 62.8333,66.8333 61.5,66.5C 61.679,64.3944 62.679,62.7277 64.5,61.5C 66.4513,59.3776 68.7846,57.8776 71.5,57C 71.1667,56.6667 70.8333,56.3333 70.5,56C 132.673,55.6186 195.007,55.7853 257.5,56.5 Z M 512.5,56.5 C 523.529,62.4005 525.696,71.7338 519,84.5C 516.072,88.381 512.239,90.881 507.5,92C 456.833,92.3333 406.167,92.6667 355.5,93C 354.667,93.8333 353.833,94.6667 353,95.5C 352.667,117.833 352.333,140.167 352,162.5C 347.525,174.74 338.858,179.407 326,176.5C 325.055,176.095 324.388,175.428 324,174.5C 323.667,174.833 323.333,175.167 323,175.5C 320.181,173.825 318.348,171.491 317.5,168.5C 317.423,167.25 316.756,166.417 315.5,166C 316.654,165.086 316.487,164.253 315,163.5C 314.833,161.167 314.667,158.833 314.5,156.5C 314.576,127.258 314.743,97.9251 315,68.5C 315.465,67.0692 316.299,65.9025 317.5,65C 316.167,63.1598 316.334,62.6598 318,63.5C 320.238,60.6009 323.071,58.4342 326.5,57C 326.167,56.6667 325.833,56.3333 325.5,56C 387.901,55.7847 450.234,55.9514 512.5,56.5 Z M 767.5,56.5 C 768.458,56.9528 769.292,57.6195 770,58.5C 770.333,58.1667 770.667,57.8333 771,57.5C 771.483,58.448 771.649,59.448 771.5,60.5C 772.552,60.3505 773.552,60.5172 774.5,61C 774.167,61.3333 773.833,61.6667 773.5,62C 779.313,71.9556 777.98,80.9556 769.5,89C 767.283,90.2754 764.949,91.2754 762.5,92C 703.167,92.6667 643.833,92.6667 584.5,92C 582.567,91.7489 580.734,91.2489 579,90.5C 578.667,90.8333 578.333,91.1667 578,91.5C 576.379,89.3761 574.546,87.3761 572.5,85.5C 571.167,84.5 571.167,83.5 572.5,82.5C 571.313,81.4805 570.313,80.3139 569.5,79C 569.483,75.3666 569.65,71.5332 570,67.5C 571.976,66.4567 572.476,65.1233 571.5,63.5C 574.44,62.4605 576.274,60.4605 577,57.5C 577.333,57.8333 577.667,58.1667 578,58.5C 578.708,57.6195 579.542,56.9528 580.5,56.5C 642.551,55.8045 704.885,55.8045 767.5,56.5 Z M 313.5,60.5 C 313.328,61.4916 313.662,62.1583 314.5,62.5C 313.833,63.5 313.167,64.5 312.5,65.5C 311.322,63.6621 311.655,61.9955 313.5,60.5 Z M 568.5,60.5 C 568.328,61.4916 568.662,62.1583 569.5,62.5C 568.833,63.5 568.167,64.5 567.5,65.5C 567.167,65.5 566.833,65.5 566.5,65.5C 566.402,63.4471 567.069,61.7804 568.5,60.5 Z M 226.5,98.5 C 226.783,99.2891 227.283,99.9558 228,100.5C 228.667,110.833 228.667,121.167 228,131.5C 226.26,132.716 225.26,134.382 225,136.5C 224.329,135.748 223.496,135.414 222.5,135.5C 223.469,134.691 224.302,133.691 225,132.5C 225.169,120.993 225.669,109.659 226.5,98.5 Z M 311.5,121.5 C 311.5,121.167 311.5,120.833 311.5,120.5C 312.321,117.359 312.821,114.025 313,110.5C 313.167,112.333 313.333,114.167 313.5,116C 313.453,118.295 312.787,120.129 311.5,121.5 Z M 166.5,136.5 C 182.328,135.339 198.328,135.172 214.5,136C 199.5,136.333 184.5,136.667 169.5,137C 169.833,137.333 170.167,137.667 170.5,138C 152.833,138.667 135.167,138.667 117.5,138C 135.212,137.848 151.545,137.348 166.5,136.5 Z M 222.5,135.5 C 224.031,136.925 223.698,137.591 221.5,137.5C 206.672,138.661 191.672,138.828 176.5,138C 191.94,138.035 207.273,137.202 222.5,135.5 Z M 503.5,136.5 C 504.117,136.389 504.617,136.056 505,135.5C 506.786,137.099 508.953,137.933 511.5,138C 510.167,138.167 508.833,138.333 507.5,138.5C 505.667,138.415 504.334,137.748 503.5,136.5 Z M 637.5,136.5 C 651.661,135.339 665.994,135.173 680.5,136C 659.348,136.165 639.014,136.998 619.5,138.5C 612.5,138.333 605.5,138.167 598.5,138C 612.243,137.842 625.243,137.342 637.5,136.5 Z M 683.5,136.5 C 698.328,135.339 713.328,135.172 728.5,136C 706.847,136.141 686.014,136.975 666,138.5C 659.167,138.333 652.333,138.167 645.5,138C 658.91,137.842 671.576,137.342 683.5,136.5 Z M 732.5,135.5 C 742.506,135.334 752.506,135.5 762.5,136C 739.197,137.878 715.863,138.544 692.5,138C 706.204,138.152 719.538,137.319 732.5,135.5 Z M 65.5,138.5 C 68.7149,135.522 69.5483,135.855 68,139.5C 67.3292,138.748 66.4959,138.414 65.5,138.5 Z M 495.5,136.5 C 495.5,136.833 495.5,137.167 495.5,137.5C 493.883,138.038 492.216,138.371 490.5,138.5C 491.78,137.069 493.447,136.402 495.5,136.5 Z M 490.5,138.5 C 491.037,142.981 489.37,144.314 485.5,142.5C 486.585,140.413 488.251,139.08 490.5,138.5 Z M 575.5,138.5 C 575.167,139.167 574.833,139.833 574.5,140.5C 573.833,140.5 573.5,140.833 573.5,141.5C 571.833,142.833 570.167,144.167 568.5,145.5C 569.833,142.167 572.167,139.833 575.5,138.5 Z M 63.5,139.5 C 63.8039,140.15 64.1373,140.817 64.5,141.5C 63.4783,142.354 62.6449,143.354 62,144.5C 60.8932,143.288 60.3932,143.621 60.5,145.5C 58.7801,146.751 58.4468,148.251 59.5,150C 58.5838,150.374 57.7504,150.874 57,151.5C 56.7944,146.246 58.9611,142.246 63.5,139.5 Z M 322.5,259.5 C 321.833,258.167 320.833,257.167 319.5,256.5C 319.167,255.5 318.5,254.833 317.5,254.5C 317.423,253.25 316.756,252.417 315.5,252C 315.833,251.667 316.167,251.333 316.5,251C 315.02,249.701 314.354,248.034 314.5,246C 314.79,242.882 315.456,239.882 316.5,237C 316.167,236.667 315.833,236.333 315.5,236C 316.416,235.722 317.082,235.222 317.5,234.5C 318.249,233.469 318.915,232.302 319.5,231C 319.167,230.667 318.833,230.333 318.5,230C 320.491,229.626 322.158,228.793 323.5,227.5C 324.815,226.524 326.148,225.524 327.5,224.5C 379.166,225.568 430.666,225.568 482,224.5C 482.601,221.297 483.934,218.63 486,216.5C 485.848,193.439 486.682,170.606 488.5,148C 488.167,147.667 487.833,147.333 487.5,147C 490.281,144.769 493.281,142.769 496.5,141C 501.167,140.333 505.833,140.333 510.5,141C 511.579,141.956 512.745,142.789 514,143.5C 515.333,143.5 516.667,143.5 518,143.5C 519.849,146.538 521.349,149.372 522.5,152C 522.651,183.627 522.484,215.46 522,247.5C 520.325,253.841 516.492,258.341 510.5,261C 495.592,261.175 480.759,261.675 466,262.5C 424.669,261.278 383.502,261.278 342.5,262.5C 335.712,262.029 329.045,261.029 322.5,259.5 Z M 574.5,256.5 C 572.09,255.468 570.757,253.968 570.5,252C 570.833,251.667 571.167,251.333 571.5,251C 570.19,245.243 569.524,239.243 569.5,233C 570.171,215.352 570.171,197.686 569.5,180C 569.515,170.769 570.181,161.769 571.5,153C 571.167,152.667 570.833,152.333 570.5,152C 572.245,148.418 574.579,145.252 577.5,142.5C 578.609,141.71 579.942,141.21 581.5,141C 642.833,140.333 704.167,140.333 765.5,141C 766.931,141.465 768.097,142.299 769,143.5C 769.333,143.167 769.667,142.833 770,142.5C 772,143.833 773.667,145.5 775,147.5C 775.526,149.55 776.359,151.383 777.5,153C 777.65,183.627 777.483,214.46 777,245.5C 775.291,255.375 769.458,261.042 759.5,262.5C 705.448,261.53 651.281,261.53 597,262.5C 591.583,261.691 586.083,261.191 580.5,261C 578.032,260.021 576.032,258.521 574.5,256.5 Z M 483.5,148.5 C 483.075,152.255 483.075,156.255 483.5,160.5C 483.453,164.267 482.786,167.767 481.5,171C 482,171.5 482.5,172 483,172.5C 483.167,175.833 483.333,179.167 483.5,182.5C 483.486,186.239 482.82,189.572 481.5,192.5C 480.368,178.545 480.202,164.545 481,150.5C 481.45,148.481 482.283,146.648 483.5,145C 484.167,144.333 484.833,144.333 485.5,145C 484.177,145.816 483.511,146.983 483.5,148.5 Z M 312.5,146.5 C 311.719,151.418 311.219,156.418 311,161.5C 310.833,159 310.667,156.5 310.5,154C 310.525,151.071 311.191,148.571 312.5,146.5 Z M 567.5,150.5 C 566.223,148.014 566.889,147.347 569.5,148.5C 569.145,149.522 568.478,150.189 567.5,150.5 Z M 567.5,150.5 C 567.5,150.833 567.5,151.167 567.5,151.5C 566.669,163.66 566.169,175.993 566,188.5C 565.833,182.167 565.667,175.833 565.5,169.5C 565.504,162.796 566.17,156.463 567.5,150.5 Z M 226.5,219.5 C 225.833,219.5 225.5,219.833 225.5,220.5C 224.711,220.783 224.044,221.283 223.5,222C 220.167,222.167 216.833,222.333 213.5,222.5C 205.13,222.316 196.797,221.982 188.5,221.5C 200.137,220.833 211.804,220.167 223.5,219.5C 224.192,218.975 224.692,218.308 225,217.5C 225.52,206.339 225.854,195.339 226,184.5C 227.975,186.17 228.809,188.336 228.5,191C 228.152,199.807 227.985,208.641 228,217.5C 227.283,218.044 226.783,218.711 226.5,219.5 Z M 735.5,185.5 C 736.244,198.396 737.078,208.729 738,216.5C 737.529,214.754 736.862,213.087 736,211.5C 735.5,202.84 735.334,194.173 735.5,185.5 Z M 481.5,192.5 C 483.069,196.785 483.736,201.285 483.5,206C 483.167,209.5 482.833,213 482.5,216.5C 481.817,216.863 481.15,217.196 480.5,217.5C 480.174,208.983 480.507,200.65 481.5,192.5 Z M 480.5,217.5 C 480.5,218.167 480.5,218.833 480.5,219.5C 479.733,220.172 479.066,221.005 478.5,222C 471.808,222.831 465.142,222.664 458.5,221.5C 464.807,220.669 471.141,220.169 477.5,220C 478.373,218.955 479.373,218.122 480.5,217.5 Z M 682.5,221.5 C 699.093,220.681 715.76,220.181 732.5,220C 733.667,219.5 734.5,218.667 735,217.5C 735.374,218.416 735.874,219.25 736.5,220C 734.913,220.862 733.246,221.529 731.5,222C 714.995,222.828 698.661,222.662 682.5,221.5 Z M 188.5,221.5 C 160.402,222.828 132.402,222.828 104.5,221.5C 132.65,220.205 160.65,220.205 188.5,221.5 Z M 325.5,221.5 C 334.324,220.343 343.324,220.176 352.5,221C 344.003,222.469 335.336,222.969 326.5,222.5C 326.5,221.833 326.167,221.5 325.5,221.5 Z M 353.5,220.5 C 357.846,220.334 362.179,220.501 366.5,221C 364.371,222.103 362.037,222.603 359.5,222.5C 357.048,222.461 355.048,221.794 353.5,220.5 Z M 367.5,220.5 C 382.515,220.167 397.515,220.501 412.5,221.5C 405,221.833 397.5,222.167 390,222.5C 382.136,222.497 374.636,221.831 367.5,220.5 Z M 413.5,220.5 C 428.17,220.333 442.837,220.5 457.5,221C 450.16,222.153 442.66,222.653 435,222.5C 427.467,222.497 420.301,221.831 413.5,220.5 Z M 682.5,221.5 C 670.877,222.146 659.21,222.48 647.5,222.5C 636.014,222.658 624.681,222.158 613.5,221C 636.67,220.17 659.67,220.337 682.5,221.5 Z M 325.5,221.5 C 325.5,221.833 325.5,222.167 325.5,222.5C 324.508,222.328 323.842,222.662 323.5,223.5C 321.847,223.66 320.514,224.326 319.5,225.5C 318.833,225.5 318.167,225.5 317.5,225.5C 319.579,223.127 322.246,221.794 325.5,221.5 Z M 316.5,226.5 C 316.443,227.609 316.11,228.609 315.5,229.5C 313.78,230.751 313.447,232.251 314.5,234C 313.036,235.377 312.036,235.377 311.5,234C 312.317,230.847 313.983,228.347 316.5,226.5 Z"/></g>
<g><path style="opacity:1" fill="#686868" d="M 890.5,91.5 C 888.05,91.702 885.717,91.3686 883.5,90.5C 882.501,85.8375 881.501,81.1709 880.5,76.5C 877.15,76.335 873.817,76.5017 870.5,77C 869.107,81.7918 867.773,86.6251 866.5,91.5C 864.604,92.4656 862.604,92.7989 860.5,92.5C 864.006,74.8081 867.673,57.1415 871.5,39.5C 874.167,39.5 876.833,39.5 879.5,39.5C 883.166,56.8319 886.833,74.1652 890.5,91.5 Z M 874.5,51.5 C 876.656,57.2315 878.323,63.2315 879.5,69.5C 876.914,70.48 874.247,70.8134 871.5,70.5C 872.629,64.1873 873.629,57.8539 874.5,51.5 Z"/></g>
<g><path style="opacity:1" fill="#676767" d="M 933.5,89.5 C 932.082,91.3079 930.082,91.9746 927.5,91.5C 927.344,80.0062 926.511,68.6729 925,57.5C 922.163,68.8475 919.33,80.1808 916.5,91.5C 914.234,91.8588 912.401,91.1922 911,89.5C 908.299,78.6877 905.299,68.021 902,57.5C 901.528,69.1716 901.028,80.8383 900.5,92.5C 898.5,92.5 896.5,92.5 894.5,92.5C 895.227,74.8142 896.227,57.1475 897.5,39.5C 900.394,39.0423 902.894,39.709 905,41.5C 908.156,53.1239 911.156,64.7906 914,76.5C 917.624,64.337 920.791,52.0036 923.5,39.5C 926.167,39.5 928.833,39.5 931.5,39.5C 932.206,56.165 932.872,72.8317 933.5,89.5 Z"/></g>
<g><path style="opacity:1" fill="#676767" d="M 948.5,39.5 C 951.85,39.335 955.183,39.5017 958.5,40C 959.672,40.4186 960.672,41.0853 961.5,42C 960.89,43.9472 960.057,45.7806 959,47.5C 948.667,43.5 945,46.8333 948,57.5C 952.352,60.8547 956.352,64.5214 960,68.5C 965.672,87.307 958.838,94.807 939.5,91C 938.667,88.9189 938.667,86.7522 939.5,84.5C 942.203,84.9555 944.87,85.6221 947.5,86.5C 955.285,84.5924 957.452,79.9257 954,72.5C 948.289,68.4559 943.622,63.4559 940,57.5C 937.98,49.008 940.813,43.008 948.5,39.5 Z"/></g>
<g><path style="opacity:1" fill="#666666" d="M 965.5,39.5 C 973.833,39.5 982.167,39.5 990.5,39.5C 990.5,41.5 990.5,43.5 990.5,45.5C 987.5,45.5 984.5,45.5 981.5,45.5C 981.5,61.1667 981.5,76.8333 981.5,92.5C 979.167,92.5 976.833,92.5 974.5,92.5C 974.5,76.8333 974.5,61.1667 974.5,45.5C 971.5,45.5 968.5,45.5 965.5,45.5C 965.5,43.5 965.5,41.5 965.5,39.5 Z"/></g>
<g><path style="opacity:1" fill="#676767" d="M 995.5,39.5 C 1002.17,39.5 1008.83,39.5 1015.5,39.5C 1015.5,41.5 1015.5,43.5 1015.5,45.5C 1011.17,45.5 1006.83,45.5 1002.5,45.5C 1002.5,50.8333 1002.5,56.1667 1002.5,61.5C 1006.83,61.5 1011.17,61.5 1015.5,61.5C 1015.5,63.5 1015.5,65.5 1015.5,67.5C 1011.17,67.5 1006.83,67.5 1002.5,67.5C 1002.5,73.5 1002.5,79.5 1002.5,85.5C 1007.17,85.5 1011.83,85.5 1016.5,85.5C 1016.5,87.8333 1016.5,90.1667 1016.5,92.5C 1009.5,92.5 1002.5,92.5 995.5,92.5C 995.5,74.8333 995.5,57.1667 995.5,39.5 Z"/></g>
<g><path style="opacity:1" fill="#676767" d="M 1029.5,69.5 C 1028.51,76.6476 1028.18,83.9809 1028.5,91.5C 1026.5,91.5 1024.5,91.5 1022.5,91.5C 1022.17,74.4869 1022.5,57.4869 1023.5,40.5C 1043.64,36.4707 1050.47,44.1374 1044,63.5C 1042.79,65.0488 1041.29,66.2155 1039.5,67C 1041.67,67.8333 1043.17,69.3333 1044,71.5C 1045.57,78.4928 1047.07,85.4928 1048.5,92.5C 1046.08,92.8076 1043.74,92.4742 1041.5,91.5C 1040.23,84.6584 1038.4,77.9918 1036,71.5C 1034.1,69.9837 1031.94,69.317 1029.5,69.5 Z M 1029.5,45.5 C 1036.31,44.3901 1039.64,47.2235 1039.5,54C 1039.41,60.5886 1036.08,64.0886 1029.5,64.5C 1029.5,58.1667 1029.5,51.8333 1029.5,45.5 Z"/></g>
<g><path style="opacity:1" fill="#666666" d="M 1055.5,39.5 C 1070.46,37.3094 1078.96,43.6427 1081,58.5C 1081.86,65.9754 1081.19,73.3088 1079,80.5C 1073.61,90.7434 1065.28,94.4101 1054,91.5C 1053.83,83 1053.67,74.5 1053.5,66C 1053.53,56.9362 1054.2,48.1029 1055.5,39.5 Z M 1060.5,45.5 C 1067.31,44.8123 1071.48,47.8123 1073,54.5C 1075.44,64.2139 1074.44,73.5473 1070,82.5C 1067.35,85.076 1064.18,86.4093 1060.5,86.5C 1060.5,72.8333 1060.5,59.1667 1060.5,45.5 Z"/></g>
<g><path style="opacity:1" fill="#676767" d="M 1089.5,91.5 C 1087.26,91.7947 1085.26,91.4614 1083.5,90.5C 1087.01,73.4667 1090.67,56.4667 1094.5,39.5C 1097.17,39.5 1099.83,39.5 1102.5,39.5C 1106.04,57.1943 1109.71,74.861 1113.5,92.5C 1111.17,92.5 1108.83,92.5 1106.5,92.5C 1105.5,87.1681 1104.5,81.8348 1103.5,76.5C 1099.83,76.5 1096.17,76.5 1092.5,76.5C 1091.88,81.5842 1090.88,86.5842 1089.5,91.5 Z M 1102.5,70.5 C 1099.61,70.8064 1096.95,70.4731 1094.5,69.5C 1095.73,63.1914 1096.89,56.8581 1098,50.5C 1099.44,57.2209 1100.94,63.8876 1102.5,70.5 Z"/></g>
<g><path style="opacity:1" fill="#686868" d="M 1149.5,62.5 C 1149.67,59.1501 1149.5,55.8168 1149,52.5C 1148.39,54.1545 1147.89,55.8211 1147.5,57.5C 1145.04,68.8809 1142.37,80.2142 1139.5,91.5C 1137.53,91.7394 1135.7,91.4061 1134,90.5C 1130.79,78.5504 1127.79,66.5504 1125,54.5C 1124.44,67.1675 1123.94,79.8341 1123.5,92.5C 1121.5,92.5 1119.5,92.5 1117.5,92.5C 1117.99,74.7897 1118.99,57.123 1120.5,39.5C 1123.39,39.0423 1125.89,39.709 1128,41.5C 1131,53.5 1134,65.5 1137,77.5C 1140,65.5049 1143,53.5049 1146,41.5C 1148.38,39.2559 1151.04,38.9226 1154,40.5C 1155.17,57.8205 1156,75.1538 1156.5,92.5C 1154.5,92.5 1152.5,92.5 1150.5,92.5C 1149.83,82.5138 1149.5,72.5138 1149.5,62.5 Z"/></g>
<g><path style="opacity:0.757" fill="#7f7f7f" d="M 1149.5,62.5 C 1148.83,60.8333 1148.17,59.1667 1147.5,57.5C 1147.89,55.8211 1148.39,54.1545 1149,52.5C 1149.5,55.8168 1149.67,59.1501 1149.5,62.5 Z"/></g>
<g><path style="opacity:0.789" fill="#7b7b7b" d="M 1094.5,69.5 C 1096.95,70.4731 1099.61,70.8064 1102.5,70.5C 1099.64,71.8032 1096.64,71.8032 1093.5,70.5C 1093.62,69.8933 1093.96,69.56 1094.5,69.5 Z"/></g>
<g><path style="opacity:0.77" fill="#7d7d7d" d="M 1029.5,69.5 C 1029.5,77.1667 1029.5,84.8333 1029.5,92.5C 1026.94,92.8016 1024.61,92.4682 1022.5,91.5C 1024.5,91.5 1026.5,91.5 1028.5,91.5C 1028.18,83.9809 1028.51,76.6476 1029.5,69.5 Z"/></g>
<g><path style="opacity:0.732" fill="#7e7e7e" d="M 883.5,90.5 C 885.717,91.3686 888.05,91.702 890.5,91.5C 889.551,92.1524 888.385,92.4857 887,92.5C 885.319,92.3917 884.152,91.7251 883.5,90.5 Z"/></g>
<g><path style="opacity:0.757" fill="#808080" d="M 933.5,89.5 C 934.404,90.209 934.737,91.209 934.5,92.5C 931.941,92.8016 929.607,92.4682 927.5,91.5C 930.082,91.9746 932.082,91.3079 933.5,89.5 Z"/></g>
<g><path style="opacity:0.732" fill="#7f7f7f" d="M 1083.5,90.5 C 1085.26,91.4614 1087.26,91.7947 1089.5,91.5C 1087.31,92.7969 1084.97,92.7969 1082.5,91.5C 1082.62,90.8933 1082.96,90.56 1083.5,90.5 Z"/></g>
<g><path style="opacity:1" fill="#fe9b37" d="M 871.5,130.5 C 875.828,130.037 879.828,130.87 883.5,133C 883.012,135.176 882.012,137.009 880.5,138.5C 871.887,135.274 868.054,138.274 869,147.5C 873.333,151.5 877.667,155.5 882,159.5C 888.092,177.069 881.926,184.903 863.5,183C 859.912,181.122 859.578,178.622 862.5,175.5C 867.324,178.496 871.824,178.163 876,174.5C 878.461,166.252 875.628,160.418 867.5,157C 859.928,149.284 859.594,141.284 866.5,133C 868.315,132.243 869.981,131.41 871.5,130.5 Z"/></g>
<g><path style="opacity:1" fill="#fe9a36" d="M 902.5,130.5 C 905.518,130.335 908.518,130.502 911.5,131C 914.066,133.276 913.9,135.443 911,137.5C 906.109,136.019 902.109,137.352 899,141.5C 893.931,153.001 894.431,164.168 900.5,175C 901.833,175.667 903.167,176.333 904.5,177C 907.468,177.17 910.301,177.336 913,177.5C 913.743,179.441 913.576,181.274 912.5,183C 899.445,185.724 891.612,180.557 889,167.5C 887.92,158.674 888.587,150.007 891,141.5C 893.437,136.226 897.271,132.56 902.5,130.5 Z"/></g>
<g><path style="opacity:1" fill="#fe9a36" d="M 1091.5,130.5 C 1094.52,130.335 1097.52,130.502 1100.5,131C 1102.7,132.67 1103.03,134.67 1101.5,137C 1093.69,135.664 1088.52,138.83 1086,146.5C 1083.66,155.408 1084.33,164.075 1088,172.5C 1091.82,177.389 1096.66,178.723 1102.5,176.5C 1102.76,178.792 1102.42,180.959 1101.5,183C 1090.07,185.705 1082.57,181.538 1079,170.5C 1076.03,158.62 1077.37,147.286 1083,136.5C 1085.64,134.109 1088.47,132.109 1091.5,130.5 Z"/></g>
<g><path style="opacity:1" fill="#fe9932" d="M 918.5,131.5 C 920.833,131.5 923.167,131.5 925.5,131.5C 925.5,148.833 925.5,166.167 925.5,183.5C 923.167,183.5 920.833,183.5 918.5,183.5C 918.5,166.167 918.5,148.833 918.5,131.5 Z"/></g>
<g><path style="opacity:1" fill="#fe9a36" d="M 933.5,131.5 C 940.5,131.5 947.5,131.5 954.5,131.5C 954.5,133.5 954.5,135.5 954.5,137.5C 949.833,137.5 945.167,137.5 940.5,137.5C 940.5,142.5 940.5,147.5 940.5,152.5C 944.833,152.5 949.167,152.5 953.5,152.5C 953.5,154.5 953.5,156.5 953.5,158.5C 949.167,158.5 944.833,158.5 940.5,158.5C 940.5,164.833 940.5,171.167 940.5,177.5C 945.5,177.5 950.5,177.5 955.5,177.5C 955.5,179.5 955.5,181.5 955.5,183.5C 948.167,183.5 940.833,183.5 933.5,183.5C 933.5,166.167 933.5,148.833 933.5,131.5 Z"/></g>
<g><path style="opacity:1" fill="#fe9b38" d="M 960.5,131.5 C 963.119,131.232 965.619,131.565 968,132.5C 972.667,144.5 977.333,156.5 982,168.5C 981.631,156.197 981.464,143.864 981.5,131.5C 983.833,131.5 986.167,131.5 988.5,131.5C 988.5,148.833 988.5,166.167 988.5,183.5C 986.076,183.808 983.743,183.474 981.5,182.5C 976.177,170.364 971.343,158.031 967,145.5C 967.397,158.13 967.564,170.797 967.5,183.5C 965.167,183.5 962.833,183.5 960.5,183.5C 960.5,166.167 960.5,148.833 960.5,131.5 Z"/></g>
<g><path style="opacity:1" fill="#fe9a35" d="M 992.5,131.5 C 1001.17,131.5 1009.83,131.5 1018.5,131.5C 1018.5,133.5 1018.5,135.5 1018.5,137.5C 1015.5,137.5 1012.5,137.5 1009.5,137.5C 1009.5,152.833 1009.5,168.167 1009.5,183.5C 1007.17,183.5 1004.83,183.5 1002.5,183.5C 1002.5,168.167 1002.5,152.833 1002.5,137.5C 999.167,137.5 995.833,137.5 992.5,137.5C 992.5,135.5 992.5,133.5 992.5,131.5 Z"/></g>
<g><path style="opacity:1" fill="#fe9932" d="M 1023.5,131.5 C 1025.5,131.5 1027.5,131.5 1029.5,131.5C 1029.5,148.833 1029.5,166.167 1029.5,183.5C 1027.5,183.5 1025.5,183.5 1023.5,183.5C 1023.5,166.167 1023.5,148.833 1023.5,131.5 Z"/></g>
<g><path style="opacity:1" fill="#fe9a36" d="M 1038.5,131.5 C 1045.17,131.5 1051.83,131.5 1058.5,131.5C 1058.5,133.5 1058.5,135.5 1058.5,137.5C 1054.17,137.5 1049.83,137.5 1045.5,137.5C 1045.5,143.167 1045.5,148.833 1045.5,154.5C 1049.5,154.5 1053.5,154.5 1057.5,154.5C 1057.5,156.5 1057.5,158.5 1057.5,160.5C 1053.5,160.5 1049.5,160.5 1045.5,160.5C 1045.5,168.167 1045.5,175.833 1045.5,183.5C 1043.17,183.5 1040.83,183.5 1038.5,183.5C 1038.5,166.167 1038.5,148.833 1038.5,131.5 Z"/></g>
<g><path style="opacity:1" fill="#fe9932" d="M 1064.5,131.5 C 1066.83,131.5 1069.17,131.5 1071.5,131.5C 1071.5,148.833 1071.5,166.167 1071.5,183.5C 1069.17,183.5 1066.83,183.5 1064.5,183.5C 1064.5,166.167 1064.5,148.833 1064.5,131.5 Z"/></g>
<g><path style="opacity:0.916" fill="#fe9932" d="M 100.5,177.5 C 142.168,177.333 183.835,177.5 225.5,178C 226.665,180.183 228.499,182.35 231,184.5C 231.667,196.167 231.667,207.833 231,219.5C 229.167,221.333 227.333,223.167 225.5,225C 184.639,225.141 143.639,225.141 102.5,225C 101,223.167 99.5,221.333 98,219.5C 97.3333,206.5 97.3333,193.5 98,180.5C 99.045,179.627 99.8783,178.627 100.5,177.5 Z M 226.5,219.5 C 225.833,219.5 225.5,219.833 225.5,220.5C 224.711,220.783 224.044,221.283 223.5,222C 220.167,222.167 216.833,222.333 213.5,222.5C 205.13,222.316 196.797,221.982 188.5,221.5C 200.137,220.833 211.804,220.167 223.5,219.5C 224.192,218.975 224.692,218.308 225,217.5C 225.52,206.339 225.854,195.339 226,184.5C 227.975,186.17 228.809,188.336 228.5,191C 228.152,199.807 227.985,208.641 228,217.5C 227.283,218.044 226.783,218.711 226.5,219.5 Z M 188.5,221.5 C 160.402,222.828 132.402,222.828 104.5,221.5C 132.65,220.205 160.65,220.205 188.5,221.5 Z"/></g>
<g><path style="opacity:0.915" fill="#fe9932" d="M 738.5,180.5 C 737.167,180.833 737.167,181.167 738.5,181.5C 739.79,187.426 740.457,193.593 740.5,200C 740.126,206.54 740.126,212.874 740.5,219C 739.089,221.046 737.423,222.879 735.5,224.5C 694.5,225.833 653.5,225.833 612.5,224.5C 611.167,223.5 609.833,222.5 608.5,221.5C 607.334,207.846 607.167,194.179 608,180.5C 608.5,179.333 609.333,178.5 610.5,178C 652.504,177.167 694.504,177.333 736.5,178.5C 737.243,179.182 737.909,179.849 738.5,180.5 Z M 735.5,185.5 C 735.334,194.173 735.5,202.84 736,211.5C 736.862,213.087 737.529,214.754 738,216.5C 737.078,208.729 736.244,198.396 735.5,185.5 Z M 682.5,221.5 C 698.661,222.662 714.995,222.828 731.5,222C 733.246,221.529 734.913,220.862 736.5,220C 735.874,219.25 735.374,218.416 735,217.5C 734.5,218.667 733.667,219.5 732.5,220C 715.76,220.181 699.093,220.681 682.5,221.5 Z M 682.5,221.5 C 659.67,220.337 636.67,220.17 613.5,221C 624.681,222.158 636.014,222.658 647.5,222.5C 659.21,222.48 670.877,222.146 682.5,221.5 Z"/></g>
<g><path style="opacity:1" fill="#656665" d="M 862.5,222.5 C 864.833,222.5 867.167,222.5 869.5,222.5C 869.5,239.833 869.5,257.167 869.5,274.5C 867.167,274.5 864.833,274.5 862.5,274.5C 862.5,257.167 862.5,239.833 862.5,222.5 Z"/></g>
<g><path style="opacity:1" fill="#666666" d="M 885.5,239.5 C 885.108,237.821 884.608,236.154 884,234.5C 883.204,237.039 883.371,239.372 884.5,241.5C 884.5,252.5 884.5,263.5 884.5,274.5C 882.5,274.5 880.5,274.5 878.5,274.5C 878.5,257.167 878.5,239.833 878.5,222.5C 880.792,222.244 882.959,222.577 885,223.5C 889.667,235.5 894.333,247.5 899,259.5C 899.5,247.171 899.667,234.838 899.5,222.5C 901.5,222.5 903.5,222.5 905.5,222.5C 905.5,239.833 905.5,257.167 905.5,274.5C 903.076,274.808 900.743,274.474 898.5,273.5C 893.767,262.299 889.434,250.966 885.5,239.5 Z"/></g>
<g><path style="opacity:1" fill="#686868" d="M 922.5,221.5 C 925.91,221.457 929.243,221.957 932.5,223C 933.333,225.081 933.333,227.248 932.5,229.5C 928.13,227.843 923.964,228.176 920,230.5C 918,233.5 918,236.5 920,239.5C 925.333,243.5 930,248.167 934,253.5C 937.382,265.745 932.882,273.078 920.5,275.5C 917.833,274.833 915.167,274.167 912.5,273.5C 911.139,271.016 911.306,268.683 913,266.5C 917.918,269.384 922.585,269.051 927,265.5C 928.857,261.698 928.524,258.032 926,254.5C 921.7,251.202 917.7,247.535 914,243.5C 909.48,233.216 912.313,225.883 922.5,221.5 Z"/></g>
<g><path style="opacity:1" fill="#686868" d="M 937.5,222.5 C 946.167,222.5 954.833,222.5 963.5,222.5C 963.5,224.5 963.5,226.5 963.5,228.5C 960.167,228.5 956.833,228.5 953.5,228.5C 953.5,243.833 953.5,259.167 953.5,274.5C 951.167,274.5 948.833,274.5 946.5,274.5C 946.5,259.167 946.5,243.833 946.5,228.5C 943.5,228.5 940.5,228.5 937.5,228.5C 937.5,226.5 937.5,224.5 937.5,222.5 Z"/></g>
<g><path style="opacity:1" fill="#686868" d="M 968.5,222.5 C 973.844,222.334 979.177,222.501 984.5,223C 991.431,226.758 993.931,232.591 992,240.5C 991.332,244.499 989.165,247.332 985.5,249C 987.617,250.731 989.117,252.898 990,255.5C 991.023,261.819 992.523,267.986 994.5,274C 991.854,274.497 989.187,274.664 986.5,274.5C 985.701,267.67 984.201,261.003 982,254.5C 979.772,252.887 977.272,252.22 974.5,252.5C 974.5,259.833 974.5,267.167 974.5,274.5C 972.167,274.5 969.833,274.5 967.5,274.5C 967.181,257.09 967.515,239.756 968.5,222.5 Z M 974.5,227.5 C 983.203,227.555 986.703,231.889 985,240.5C 982.921,244.957 979.421,246.957 974.5,246.5C 974.5,240.167 974.5,233.833 974.5,227.5 Z"/></g>
<g><path style="opacity:1" fill="#696969" d="M 998.5,222.5 C 1000.83,222.5 1003.17,222.5 1005.5,222.5C 1005.33,235.504 1005.5,248.504 1006,261.5C 1006.78,267.295 1009.95,269.462 1015.5,268C 1016.46,266.581 1017.29,265.081 1018,263.5C 1018.5,249.837 1018.67,236.171 1018.5,222.5C 1020.83,222.5 1023.17,222.5 1025.5,222.5C 1025.93,237.558 1025.43,252.558 1024,267.5C 1019.76,274.778 1013.59,276.945 1005.5,274C 1002.89,272.062 1001.06,269.562 1000,266.5C 998.606,251.878 998.106,237.211 998.5,222.5 Z"/></g>
<g><path style="opacity:1" fill="#686868" d="M 1035.5,222.5 C 1038.39,222.042 1040.89,222.709 1043,224.5C 1046,236.5 1049,248.5 1052,260.5C 1054.84,248.13 1057.84,235.796 1061,223.5C 1063.47,222.223 1065.97,222.223 1068.5,223.5C 1070.01,240.444 1071.01,257.444 1071.5,274.5C 1069.5,274.5 1067.5,274.5 1065.5,274.5C 1064.97,262.814 1064.13,251.148 1063,239.5C 1060,251.15 1057.17,262.817 1054.5,274.5C 1052.53,274.739 1050.7,274.406 1049,273.5C 1046,261.495 1043,249.495 1040,237.5C 1039.33,249.829 1038.83,262.162 1038.5,274.5C 1036.5,274.5 1034.5,274.5 1032.5,274.5C 1032.88,257.075 1033.88,239.742 1035.5,222.5 Z"/></g>
<g><path style="opacity:1" fill="#686868" d="M 1078.5,222.5 C 1085.5,222.5 1092.5,222.5 1099.5,222.5C 1099.5,224.5 1099.5,226.5 1099.5,228.5C 1094.83,228.5 1090.17,228.5 1085.5,228.5C 1085.5,233.833 1085.5,239.167 1085.5,244.5C 1089.83,244.5 1094.17,244.5 1098.5,244.5C 1098.5,246.5 1098.5,248.5 1098.5,250.5C 1094.17,250.5 1089.83,250.5 1085.5,250.5C 1085.5,256.5 1085.5,262.5 1085.5,268.5C 1090.5,268.5 1095.5,268.5 1100.5,268.5C 1100.5,270.5 1100.5,272.5 1100.5,274.5C 1093.17,274.5 1085.83,274.5 1078.5,274.5C 1078.5,257.167 1078.5,239.833 1078.5,222.5 Z"/></g>
<g><path style="opacity:1" fill="#676767" d="M 1105.5,222.5 C 1107.92,222.192 1110.26,222.526 1112.5,223.5C 1117.28,234.721 1121.78,246.054 1126,257.5C 1126.5,245.838 1126.67,234.171 1126.5,222.5C 1128.5,222.5 1130.5,222.5 1132.5,222.5C 1132.5,239.833 1132.5,257.167 1132.5,274.5C 1130.21,274.756 1128.04,274.423 1126,273.5C 1121.33,261.5 1116.67,249.5 1112,237.5C 1112.25,249.815 1112.42,262.149 1112.5,274.5C 1110.17,274.5 1107.83,274.5 1105.5,274.5C 1105.5,257.167 1105.5,239.833 1105.5,222.5 Z"/></g>
<g><path style="opacity:1" fill="#666666" d="M 1137.5,222.5 C 1146.17,222.5 1154.83,222.5 1163.5,222.5C 1163.5,224.5 1163.5,226.5 1163.5,228.5C 1160.17,228.5 1156.83,228.5 1153.5,228.5C 1153.5,243.833 1153.5,259.167 1153.5,274.5C 1151.5,274.5 1149.5,274.5 1147.5,274.5C 1147.5,259.167 1147.5,243.833 1147.5,228.5C 1144.17,228.5 1140.83,228.5 1137.5,228.5C 1137.5,226.5 1137.5,224.5 1137.5,222.5 Z"/></g>
<g><path style="opacity:1" fill="#696969" d="M 1176.5,221.5 C 1180.58,221.121 1184.24,222.121 1187.5,224.5C 1187.05,226.565 1186.05,228.232 1184.5,229.5C 1174.29,226.872 1170.79,230.539 1174,240.5C 1178.18,243.595 1182.18,246.928 1186,250.5C 1191.88,264.069 1187.72,272.402 1173.5,275.5C 1170.55,274.577 1167.55,273.911 1164.5,273.5C 1164.7,271.04 1165.37,268.707 1166.5,266.5C 1171.98,269.713 1176.81,269.046 1181,264.5C 1181.79,261.366 1181.46,258.366 1180,255.5C 1176.63,251.797 1172.97,248.464 1169,245.5C 1162.38,234.365 1164.88,226.365 1176.5,221.5 Z"/></g>
<g><path style="opacity:0.757" fill="#7d7d7d" d="M 885.5,239.5 C 884.662,239.842 884.328,240.508 884.5,241.5C 883.371,239.372 883.204,237.039 884,234.5C 884.608,236.154 885.108,237.821 885.5,239.5 Z"/></g>
<g><path style="opacity:0.027" fill="#fe9932" d="M 819.5,295.5 C 820.833,296.167 820.833,296.167 819.5,295.5 Z"/></g>
<g><path style="opacity:0.016" fill="#fe9932" d="M 817.5,298.5 C 818.833,299.167 818.833,299.167 817.5,298.5 Z"/></g>
<g><path style="opacity:0.031" fill="#fe9932" d="M 807.5,306.5 C 808.833,307.167 808.833,307.167 807.5,306.5 Z"/></g>
</svg>
